<?xml version="1.0" encoding="iso-8859-1"?>
<!-- Generator: Adobe Illustrator 19.0.0, SVG Export Plug-In . SVG Version: 6.00 Build 0)  -->
<svg xmlns="http://www.w3.org/2000/svg" xmlns:xlink="http://www.w3.org/1999/xlink" version="1.1" id="Layer_1" x="0px" y="0px" viewBox="0 0 488.8 488.8" style="enable-background:new 0 0 488.8 488.8;" xml:space="preserve" width="512" height="512">
<g>
	<path style="fill:#FFB739;" d="M295.17,473.8c0,8.29-6.72,15-15,15h-71.54c-8.28,0-15-6.71-15-15c0-8.28,6.72-15,15-15h20.77   V245.08c0-8.29,6.72-15,15-15s15,6.71,15,15V458.8h20.77C288.45,458.8,295.17,465.52,295.17,473.8z"/>
	<path style="fill:#FF9441;" d="M295.17,473.8c0,8.29-6.72,15-15,15H244.4V230.08c8.28,0,15,6.71,15,15V458.8h20.77   C288.45,458.8,295.17,465.52,295.17,473.8z"/>
	<path style="fill:#1E8AFF;" d="M365,30.66v202.35c0,16.94-13.73,30.66-30.66,30.66H154.46c-16.93,0-30.66-13.72-30.66-30.66V30.66   C123.8,13.73,137.53,0,154.46,0h179.88C351.27,0,365,13.73,365,30.66z"/>
	<path style="fill:#1A64B6;" d="M365,30.66v202.35c0,16.94-13.73,30.66-30.66,30.66H244.4V0h89.94C351.27,0,365,13.73,365,30.66z"/>
	<path style="fill:#BFDCFF;" d="M301.01,29.26H187.79c-19.2,0-34.82,15.62-34.82,34.82v129.6c0,8.28,6.72,15,15,15h11.89v10.74   c0,8.28,6.72,15,15,15c8.29,0,15-6.72,15-15v-10.74h69.08v10.74c0,8.28,6.71,15,15,15c8.28,0,15-6.72,15-15v-10.74h11.89   c8.28,0,15-6.72,15-15V64.08C335.83,44.88,320.21,29.26,301.01,29.26z M305.83,178.68H182.97v-48.87h122.86V178.68z M305.83,99.81   H182.97V64.08c0-2.66,2.16-4.82,4.82-4.82h113.22c2.66,0,4.82,2.16,4.82,4.82V99.81z"/>
	<path style="fill:#89C1FF;" d="M335.83,64.08v129.6c0,8.28-6.72,15-15,15h-11.89v10.74c0,8.28-6.72,15-15,15c-8.29,0-15-6.72-15-15   v-10.74H244.4v-30h61.43v-48.87H244.4v-30h61.43V64.08c0-2.66-2.16-4.82-4.82-4.82H244.4v-30h56.61   C320.21,29.26,335.83,44.88,335.83,64.08z"/>
	<path style="fill:#BFDCFF;" d="M212.632,169.315h1.521c8.284,0,15-6.716,15-15s-6.716-15-15-15h-1.521c-8.284,0-15,6.716-15,15   S204.348,169.315,212.632,169.315z"/>
	<path style="fill:#89C1FF;" d="M274.646,169.315h1.521c8.284,0,15-6.716,15-15s-6.716-15-15-15h-1.521c-8.284,0-15,6.716-15,15   S266.362,169.315,274.646,169.315z"/>
</g>















</svg>
