<?xml version="1.0" encoding="iso-8859-1"?>
<!-- Generator: Adobe Illustrator 18.1.1, SVG Export Plug-In . SVG Version: 6.00 Build 0)  -->
<svg version="1.1" id="Capa_1" xmlns="http://www.w3.org/2000/svg" xmlns:xlink="http://www.w3.org/1999/xlink" x="0px" y="0px"
	 viewBox="0 0 46.087 46.087" style="enable-background:new 0 0 46.087 46.087;" xml:space="preserve">
<g>
	<path style="fill:#030104;" d="M44.6,7.162h-3.379v11.625h1.351v5.338h-2.568V6.487C40.005,2.904,37.1,0,33.517,0H12.162
		C8.58,0,5.675,2.904,5.675,6.487v17.3h-2.23v-5.678h1.419V6.487H1.486v11.622h1.419v6.22h2.77v12.705
		c0,2.454,1.366,4.593,3.379,5.694v3.358h5.676V43.52h16.083v2.567h5.678v-3.294c2.086-1.076,3.513-3.251,3.513-5.76V24.664h3.109
		v-5.878h1.487L44.6,7.162L44.6,7.162z M15.407,1.35h15.136v3.516H15.407V1.35z M17.028,36.762H8.649V32.98h8.379V36.762z
		 M37.301,36.762h-8.379V32.98h8.379V36.762z M37.301,24.598c0,0-1.622,5.137-14.596,5.137c-12.976,0-14.328-5.137-14.328-5.137
		V6.756h28.924V24.598z"/>
</g>
<g>
</g>
<g>
</g>
<g>
</g>
<g>
</g>
<g>
</g>
<g>
</g>
<g>
</g>
<g>
</g>
<g>
</g>
<g>
</g>
<g>
</g>
<g>
</g>
<g>
</g>
<g>
</g>
<g>
</g>
</svg>
