<?xml version="1.0" encoding="iso-8859-1"?>
<!-- Generator: Adobe Illustrator 19.0.0, SVG Export Plug-In . SVG Version: 6.00 Build 0)  -->
<svg version="1.1" id="Layer_1" xmlns="http://www.w3.org/2000/svg" xmlns:xlink="http://www.w3.org/1999/xlink" x="0px" y="0px"
	 viewBox="0 0 508 508" style="enable-background:new 0 0 508 508;" xml:space="preserve">
<circle style="fill:#84DBFF;" cx="254" cy="254" r="254"/>
<path style="fill:#324A5E;" d="M264.4,311.2v196.4c-3.6,0-6.8,0.4-10.4,0.4s-6.8,0-10.4-0.4V311.2H264.4z"/>
<path style="fill:#FF7058;" d="M414.4,210l-72-124.8c-3.2-6-9.6-9.6-16.4-9.6H182c-6.8,0-13.2,3.6-16.4,9.6L93.6,210
	c-3.2,6-3.2,13.2,0,19.2l72,124.8c3.2,6,9.6,9.6,16.4,9.6h144c6.8,0,13.2-3.6,16.4-9.6l72-124.8C418,223.2,418,216,414.4,210z"/>
<g>
	<path style="fill:#FFFFFF;" d="M316.4,333.2H191.6c-2,0-4-1.2-5.2-2.8l-62.4-108c-1.2-2-1.2-4,0-6l62.4-108c1.2-2,3.2-2.8,5.2-2.8
		h124.8c2,0,4,1.2,5.2,2.8l62.4,108c1.2,2,1.2,4,0,6l-62.4,108C320.4,332.4,318.4,333.2,316.4,333.2z M195.2,321.6h118l58.8-102
		l-59.2-102H195.2l-59.2,102L195.2,321.6z"/>
	<path style="fill:#FFFFFF;" d="M184,203.2c-0.8,0.8-1.6,2-1.6,3.2s0.4,2.4,1.6,3.2c1.2,0.8,4,1.6,8,2.8s7.6,2.4,9.6,4.8
		c2.4,2,3.6,5.2,3.6,8.8c0,4-1.6,7.2-4.4,9.6c-2.8,2.4-6.8,3.6-11.6,3.6c-6.8,0-13.2-2.4-18.8-7.6l6-7.2c4.8,4,9.2,6.4,13.2,6.4
		c2,0,3.2-0.4,4.4-1.2s1.6-2,1.6-3.2s-0.4-2.4-1.6-3.2c-1.2-0.8-3.2-1.6-6.4-2.4c-5.2-1.2-8.8-2.8-11.2-4.8s-3.6-5.2-3.6-9.2
		s1.6-7.2,4.4-9.6c2.8-2.4,6.8-3.2,11.2-3.2c2.8,0,6,0.4,8.8,1.6c2.8,1.2,5.6,2.4,7.6,4.4l-4.8,7.2c-4-2.8-7.6-4.4-12-4.4
		C186.4,202,184.8,202.4,184,203.2z"/>
	<path style="fill:#FFFFFF;" d="M232,202.8v35.6h-10v-35.6h-12v-8.4h34.8v8.4L232,202.8L232,202.8z"/>
	<path style="fill:#FFFFFF;" d="M287.6,232.4c-4.4,4.4-10,6.4-16.4,6.4s-12-2-16.4-6.4s-6.8-9.6-6.8-16s2.4-12,6.8-16
		c4.4-4.4,10-6.4,16.4-6.4s12,2,16.4,6.4s6.8,9.6,6.8,16C294,222.4,292,228,287.6,232.4z M284,216c0-4-1.2-7.2-3.6-10s-5.6-4-9.2-4
		s-6.8,1.2-9.2,4c-2.4,2.8-3.6,6-3.6,10s1.2,7.2,3.6,10s5.6,4,9.2,4s6.8-1.2,9.2-4C282.8,223.2,284,220,284,216z"/>
	<path style="fill:#FFFFFF;" d="M332.8,198.4c3.2,2.8,4.8,6.8,4.8,12c0,5.6-1.6,9.6-4.8,12c-3.2,2.4-8,3.6-14.4,3.6h-6v12.4h-10v-44
		H318C324.8,194.4,329.6,195.6,332.8,198.4z M325.6,215.6c1.2-1.2,1.6-3.2,1.6-5.6c0-2.4-0.8-4.4-2.4-5.6c-1.6-1.2-4-1.6-7.2-1.6
		H312v14.8h6.8C322,217.6,324.4,216.8,325.6,215.6z"/>
</g>
<g>
</g>
<g>
</g>
<g>
</g>
<g>
</g>
<g>
</g>
<g>
</g>
<g>
</g>
<g>
</g>
<g>
</g>
<g>
</g>
<g>
</g>
<g>
</g>
<g>
</g>
<g>
</g>
<g>
</g>
</svg>
